<?xml version="1.0" encoding="UTF-8"?>
<svg xmlns="http://www.w3.org/2000/svg" id="Layer_2" data-name="Layer 2" viewBox="0 0 243.1 243.1">
  <defs>
    <style>.cls-2{fill:none;stroke:#8233ff;stroke-linecap:round;stroke-linejoin:round;stroke-width:5px}.cls-3{opacity:.5}</style>
  </defs>
  <g id="Layer_1-2" data-name="Layer 1">
    <rect width="243.1" height="243.1" rx="60.57" ry="60.57" style="fill:#fff"></rect>
    <path class="cls-2" d="M188.98 102.13v54.31M60.55 156.44V80.79c0-3.77 3.08-6.85 6.88-6.85h93.36M55.37 156.95v6.49c0 6.34 5.15 11.46 11.49 11.46h115.83c6.31 0 11.46-5.12 11.46-11.46v-6.49h-55.33l-1.77 5.51h-24.6l-1.77-5.51H55.37z"></path>
    <g class="cls-3">
      <path class="cls-2" d="M140.41 108.53c0 8.65-7 15.65-15.65 15.65s-15.65-7-15.65-15.65 7-15.65 15.65-15.65 15.65 7 15.65 15.65"></path>
    </g>
    <g class="cls-3">
      <path class="cls-2" d="m95.2 156.95 2.3-10.77c1.62-7.48 8.2-12.81 15.86-12.81h22.83c7.63 0 14.24 5.33 15.83 12.81l2.33 10.77"></path>
    </g>
    <path class="cls-2" d="M199 84.47c0 11.34-9.19 20.56-20.56 20.56s-20.56-9.22-20.56-20.56 9.22-20.56 20.56-20.56S199 73.13 199 84.47"></path>
    <g class="cls-3">
      <path class="cls-2" d="m173.93 74.99 15.2 9.48-15.2 9.49V74.99z"></path>
    </g>
    <path class="cls-2" d="M188.98 102.13v54.31M60.55 156.44V80.79c0-3.77 3.08-6.85 6.88-6.85h93.36M55.37 156.95v6.49c0 6.34 5.15 11.46 11.49 11.46h115.83c6.31 0 11.46-5.12 11.46-11.46v-6.49h-55.33l-1.77 5.51h-24.6l-1.77-5.51H55.37z"></path>
    <path class="cls-2" d="M199 84.47c0 11.34-9.19 20.56-20.56 20.56s-20.56-9.22-20.56-20.56 9.22-20.56 20.56-20.56S199 73.13 199 84.47"></path>
  </g>
</svg>
