<?xml version="1.0" encoding="UTF-8"?>
<svg xmlns="http://www.w3.org/2000/svg" id="Layer_2" data-name="Layer 2" viewBox="0 0 243.1 243.1">
  <defs>
    <style>.cls-1{opacity:.5}.cls-1,.cls-2{fill:none;stroke:#009af9;stroke-linecap:round;stroke-linejoin:round;stroke-width:5px}</style>
  </defs>
  <g id="Layer_1-2" data-name="Layer 1">
    <rect width="243.1" height="243.1" rx="60.57" ry="60.57" style="fill:#fff"></rect>
    <circle class="cls-2" cx="93.17" cy="88.31" r="15.18" transform="rotate(-45 93.172 88.317)"></circle>
    <path class="cls-2" d="M108.28 107.6h0c-2.1 0-4.12.6-5.99 1.55-2.74 1.4-5.84 2.18-9.13 2.18s-6.51-.82-9.29-2.27c-1.75-.91-3.66-1.47-5.63-1.47h-.2c-6.81 0-12.33 5.52-12.33 12.33v30.21c0 4.48 3.63 8.11 8.11 8.11h0M122.12 121.28l8.12-10.72c1.49-1.93 3.69-2.95 5.94-2.95 1.59 0 3.15.5 4.51 1.51 3.22 2.44 3.88 7.2 1.44 10.43-2.36 3.12-12.79 18.82-16.97 20.82-2.78 1.33-6.04.56-8.23-1.47"></path>
    <path class="cls-2" d="M107.91 107.63s.1-.02.15-.02h.07a7.45 7.45 0 0 1 5.87 2.95l8.12 10.72"></path>
    <path class="cls-2" d="M67.59 99.5V65c0-5.43 4.4-9.84 9.84-9.84h104.03c5.43 0 9.84 4.4 9.84 9.84v57.42c0 5.43-4.4 9.84-9.84 9.84h-35.15M136.19 107.61l13.71-24.29M59.99 188.26v-16.97c0-2.11 2.3-3.83 5.13-3.83h77.29c2.83 0 5.13 1.71 5.13 3.83v16.97"></path>
    <path class="cls-1" d="M122.87 72.38h52.07M159.77 91.4h15.17M159.77 110.42h15.17"></path>
    <path class="cls-2" d="M108.55 136.13H76.94l7.33 24.09h31.6l-7.32-24.09zM115.87 160.22h15.61"></path>
    <path class="cls-1" d="M139.62 150.88c1.91.3 3.71 1.31 4.97 2.97a7.742 7.742 0 0 1 1.49 5.98M141.55 142.24c3.88.58 7.57 2.62 10.14 6 2.65 3.49 3.62 7.75 3.01 11.77"></path>
  </g>
</svg>
