<?xml version="1.0" encoding="UTF-8"?>
<svg xmlns="http://www.w3.org/2000/svg" id="Layer_2" data-name="Layer 2" viewBox="0 0 243.1 243.1">
  <defs>
    <style>.cls-1{opacity:.5}.cls-1,.cls-2{fill:none;stroke:#8233ff;stroke-linecap:round;stroke-linejoin:round;stroke-width:5px}</style>
  </defs>
  <g id="Layer_1-2" data-name="Layer 1">
    <rect width="243.1" height="243.1" rx="60.57" ry="60.57" style="fill:#fff"></rect>
    <path class="cls-2" d="M163.51 176.51c-9.53 7.5-21.12 12.5-33.79 14.01-2.64.32-5.34.47-8.08.47s-5.42-.16-8.06-.47a67.24 67.24 0 0 1-33.79-14.01 67.432 67.432 0 0 1-11.43-11.41 67.502 67.502 0 0 1-14.01-33.8h34.39c.82 3.4 2.17 6.58 3.93 9.49a33.811 33.811 0 0 0 20.91 15.34 33.73 33.73 0 0 0 16.14 0c3.39-.82 6.58-2.17 9.49-3.92l24.31 24.31z"></path>
    <path class="cls-1" d="M150.62 140.8c1.76-2.9 3.09-6.1 3.92-9.5h34.39c-1.5 12.66-6.51 24.26-14.02 33.79l-24.29-24.29z"></path>
    <path class="cls-2" d="M129.71 55.93c30.98 3.68 55.55 28.26 59.22 59.23h-34.39c-2.97-12.22-12.59-21.85-24.83-24.84V55.93zM113.57 90.33c-12.23 2.97-21.87 12.6-24.84 24.84H54.34c3.67-30.97 28.25-55.55 59.23-59.23v34.39z"></path>
    <path class="cls-1" d="M97.9 99.05 73.94 75.1M113.56 87.78 89.39 63.61M87.07 115.16 62.33 90.42"></path>
  </g>
</svg>
